<svg width="88" height="28" viewBox="0 0 88 28" fill="none" xmlns="http://www.w3.org/2000/svg">
<path d="M0 27.9607V0.766602H10.7289C12.7826 0.766602 14.5354 1.13397 15.9871 1.86871C17.4478 2.59459 18.5587 3.62587 19.32 4.96256C20.0901 6.2904 20.4752 7.85282 20.4752 9.64982C20.4752 11.4557 20.0857 13.0092 19.3067 14.3105C18.5277 15.6029 17.3991 16.5944 15.9207 17.2849C14.4513 17.9753 12.672 18.3206 10.5828 18.3206H3.39926V13.6997H9.65336C10.751 13.6997 11.6628 13.5492 12.3887 13.2483C13.1146 12.9473 13.6546 12.4958 14.0087 11.8939C14.3716 11.2919 16.8351 12.3097 16.8351 11.4156C16.8351 10.5127 18.2532 13.0005 17.8903 12.3808C17.5362 11.7611 14.7434 14.0184 14.0087 13.6997C13.2828 13.3722 6.53288 15.4968 5.42635 15.4968L5.74953 5.46714V27.9607H0ZM14.6859 15.5852L21.4445 27.9607H15.0975L8.48487 15.5852H14.6859Z" fill="white"/>
<path d="M59.5859 0.766602V27.9607H53.9294V0.766602H59.5859Z" fill="white"/>
<path d="M31.9122 19.4625V9.07592V6.9986L40.2215 13.2306L31.9122 19.4625Z" stroke="#FC9D46" stroke-width="6"/>
<circle cx="77.0941" cy="14.7885" r="10.906" fill="white"/>
</svg>
