<svg width="40" height="40" viewBox="0 0 40 40" fill="none" xmlns="http://www.w3.org/2000/svg">
<path d="M20 26.5C23.5899 26.5 26.5 23.5899 26.5 20C26.5 16.4101 23.5899 13.5 20 13.5C16.4101 13.5 13.5 16.4101 13.5 20C13.5 23.5899 16.4101 26.5 20 26.5Z" stroke="#E5E5E5" stroke-width="1.5" stroke-linecap="round" stroke-linejoin="round"/>
<path d="M27.14 27.14L27.01 27.01M27.01 12.99L27.14 12.86L27.01 12.99ZM12.86 27.14L12.99 27.01L12.86 27.14ZM20 10.08V10V10.08ZM20 30V29.92V30ZM10.08 20H10H10.08ZM30 20H29.92H30ZM12.99 12.99L12.86 12.86L12.99 12.99Z" stroke="#E5E5E5" stroke-width="2" stroke-linecap="round" stroke-linejoin="round"/>
<rect x="0.5" y="0.5" width="39" height="39" rx="19.5" stroke="#535353"/>
</svg>
